<svg width="163" height="208" viewBox="0 0 163 208" fill="none" xmlns="http://www.w3.org/2000/svg">
<path d="M54.3255 7.633V11.962H59.5095V13.519H54.3255V19H52.3995V6.076H60.4095V7.633H54.3255ZM66.0432 9.712C66.7152 9.712 67.3212 9.823 67.8612 10.045C68.4072 10.261 68.8692 10.576 69.2472 10.99C69.6312 11.398 69.9252 11.893 70.1292 12.475C70.3332 13.051 70.4352 13.699 70.4352 14.419C70.4352 15.139 70.3332 15.79 70.1292 16.372C69.9252 16.954 69.6312 17.449 69.2472 17.857C68.8692 18.265 68.4072 18.58 67.8612 18.802C67.3212 19.018 66.7152 19.126 66.0432 19.126C65.3652 19.126 64.7532 19.018 64.2072 18.802C63.6672 18.58 63.2052 18.265 62.8212 17.857C62.4372 17.449 62.1402 16.954 61.9302 16.372C61.7262 15.79 61.6242 15.139 61.6242 14.419C61.6242 13.699 61.7262 13.051 61.9302 12.475C62.1402 11.893 62.4372 11.398 62.8212 10.99C63.2052 10.576 63.6672 10.261 64.2072 10.045C64.7532 9.823 65.3652 9.712 66.0432 9.712ZM66.0432 17.758C66.9072 17.758 67.5522 17.467 67.9782 16.885C68.4042 16.303 68.6172 15.484 68.6172 14.428C68.6172 13.372 68.4042 12.553 67.9782 11.971C67.5522 11.383 66.9072 11.089 66.0432 11.089C65.1672 11.089 64.5132 11.383 64.0812 11.971C63.6552 12.553 63.4422 13.372 63.4422 14.428C63.4422 15.484 63.6552 16.303 64.0812 16.885C64.5132 17.467 65.1672 17.758 66.0432 17.758ZM74.7703 11.611C75.0643 11.011 75.4183 10.54 75.8323 10.198C76.2463 9.856 76.7443 9.685 77.3263 9.685C77.5243 9.685 77.7103 9.709 77.8843 9.757C78.0643 9.799 78.2203 9.865 78.3523 9.955L78.2353 11.278C78.1933 11.44 78.0943 11.521 77.9383 11.521C77.8543 11.521 77.7283 11.506 77.5603 11.476C77.3923 11.44 77.2123 11.422 77.0203 11.422C76.7383 11.422 76.4893 11.464 76.2733 11.548C76.0573 11.626 75.8623 11.746 75.6883 11.908C75.5203 12.064 75.3703 12.259 75.2383 12.493C75.1063 12.721 74.9833 12.982 74.8693 13.276V19H73.1143V9.856H74.1223C74.3143 9.856 74.4433 9.892 74.5093 9.964C74.5813 10.03 74.6323 10.15 74.6623 10.324L74.7703 11.611Z" fill="#20354E"/>
<path d="M97.3237 24C93.7517 23.9794 90.7971 16.6879 90.7971 12.9745C90.7971 6.90873 95.3475 5.58076 97.1012 5.58076C97.8915 5.58076 98.7354 5.89112 99.4797 6.16576C100 6.35734 100.539 6.5551 100.838 6.5551C101.017 6.5551 101.439 6.38687 101.812 6.23926C102.607 5.92271 103.597 5.52929 104.749 5.52929C104.751 5.52929 104.754 5.52929 104.756 5.52929C105.616 5.52929 108.225 5.7181 109.793 8.07329L110.16 8.62534L109.632 9.02429C108.876 9.5942 107.498 10.6338 107.498 12.6931C107.498 15.132 109.059 16.07 109.809 16.5211C110.14 16.7202 110.483 16.9255 110.483 17.3746C110.483 17.6678 108.142 23.9636 104.744 23.9636C103.913 23.9636 103.325 23.7137 102.806 23.4933C102.282 23.2701 101.829 23.0779 101.082 23.0779C100.703 23.0779 100.223 23.2571 99.7159 23.4473C99.0225 23.7061 98.2376 24 97.347 24H97.3237Z" fill="#20354E"/>
<path d="M105.109 0C105.198 3.19106 102.915 5.40487 100.636 5.26603C100.26 2.71945 102.915 0 105.109 0Z" fill="#20354E"/>
<g clip-path="url(#clip0)">
<path d="M157.446 93C154.655 93 152.392 90.7612 152.392 88V62.375C152.392 59.9625 150.409 58 147.97 58H122.07C119.279 58 117.016 55.7613 117.016 53C117.016 50.2387 119.279 48 122.07 48H147.97C155.982 48 162.5 54.4488 162.5 62.375V88C162.5 90.7612 160.237 93 157.446 93Z" fill="#20354E"/>
<path d="M5.8333 93C3.04205 93 0.779541 90.7612 0.779541 88V62.375C0.779541 54.4488 7.29763 48 15.3091 48H41.2097C44.0009 48 46.2634 50.2387 46.2634 53C46.2634 55.7613 44.0009 58 41.2097 58H15.3091C12.8707 58 10.8871 59.9625 10.8871 62.375V88C10.8871 90.7612 8.62456 93 5.8333 93Z" fill="#20354E"/>
<path d="M41.2097 208H15.3091C7.29763 208 0.779541 201.551 0.779541 193.625V168C0.779541 165.239 3.04205 163 5.8333 163C8.62456 163 10.8871 165.239 10.8871 168V193.625C10.8871 196.037 12.8707 198 15.3091 198H41.2097C44.0009 198 46.2634 200.239 46.2634 203C46.2634 205.761 44.0009 208 41.2097 208Z" fill="#20354E"/>
<path d="M147.97 208H122.07C119.279 208 117.016 205.761 117.016 203C117.016 200.239 119.279 198 122.07 198H147.97C150.409 198 152.392 196.037 152.392 193.625V168C152.392 165.239 154.655 163 157.446 163C160.237 163 162.5 165.239 162.5 168V193.625C162.5 201.551 155.982 208 147.97 208Z" fill="#20354E"/>
<path d="M62.0563 123H35.5241C27.5126 123 20.9945 116.551 20.9945 108.625V82.375C20.9945 74.4488 27.5126 68 35.5241 68H62.0563C70.0678 68 76.5859 74.4488 76.5859 82.375V108.625C76.5859 116.551 70.0678 123 62.0563 123ZM35.5241 78C33.0856 78 31.102 79.9625 31.102 82.375V108.625C31.102 111.037 33.0856 113 35.5241 113H62.0563C64.4948 113 66.4784 111.037 66.4784 108.625V82.375C66.4784 79.9625 64.4948 78 62.0563 78H35.5241Z" fill="#20354E"/>
<path d="M62.0563 188H35.5241C27.5126 188 20.9945 181.551 20.9945 173.625V147.375C20.9945 139.449 27.5126 133 35.5241 133H62.0563C70.0678 133 76.5859 139.449 76.5859 147.375V173.625C76.5859 181.551 70.0678 188 62.0563 188ZM35.5241 143C33.0856 143 31.102 144.962 31.102 147.375V173.625C31.102 176.037 33.0856 178 35.5241 178H62.0563C64.4948 178 66.4784 176.037 66.4784 173.625V147.375C66.4784 144.962 64.4948 143 62.0563 143H35.5241Z" fill="#20354E"/>
<path d="M127.755 123H101.223C93.2117 123 86.6936 116.551 86.6936 108.625V82.375C86.6936 74.4488 93.2117 68 101.223 68H127.755C135.767 68 142.285 74.4488 142.285 82.375V108.625C142.285 116.551 135.767 123 127.755 123ZM101.223 78C98.7847 78 96.8011 79.9625 96.8011 82.375V108.625C96.8011 111.037 98.7847 113 101.223 113H127.755C130.194 113 132.177 111.037 132.177 108.625V82.375C132.177 79.9625 130.194 78 127.755 78H101.223Z" fill="#20354E"/>
<path d="M134.073 158H122.07V141.125C122.07 136.645 118.386 133 113.858 133H94.906C90.3775 133 86.6936 136.645 86.6936 141.125V159.875C86.6936 164.355 90.3775 168 94.906 168H111.962V179.875C111.962 184.355 115.646 188 120.175 188H134.073C138.601 188 142.285 184.355 142.285 179.875V166.125C142.285 161.645 138.601 158 134.073 158ZM96.8011 143H111.962V158H96.8011V143ZM132.177 178H122.07V168H132.177V178Z" fill="#20354E"/>
<path d="M51.3171 103H46.2634C43.4721 103 41.2096 100.761 41.2096 98V93C41.2096 90.2387 43.4721 88 46.2634 88H51.3171C54.1084 88 56.3709 90.2387 56.3709 93V98C56.3709 100.761 54.1084 103 51.3171 103Z" fill="#20354E"/>
<path d="M117.016 103H111.962C109.171 103 106.909 100.761 106.909 98V93C106.909 90.2387 109.171 88 111.962 88H117.016C119.807 88 122.07 90.2387 122.07 93V98C122.07 100.761 119.807 103 117.016 103Z" fill="#20354E"/>
<path d="M51.3171 168H46.2634C43.4721 168 41.2096 165.761 41.2096 163V158C41.2096 155.239 43.4721 153 46.2634 153H51.3171C54.1084 153 56.3709 155.239 56.3709 158V163C56.3709 165.761 54.1084 168 51.3171 168Z" fill="#20354E"/>
</g>
<defs>
<clipPath id="clip0">
<rect width="161.72" height="160" fill="white" transform="translate(0.779541 48)"/>
</clipPath>
</defs>
</svg>
