<svg width="163" height="208" viewBox="0 0 163 208" fill="none" xmlns="http://www.w3.org/2000/svg">
<path d="M54.0459 7.633V11.962H59.2299V13.519H54.0459V19H52.1199V6.076H60.1299V7.633H54.0459ZM65.7637 9.712C66.4357 9.712 67.0417 9.823 67.5817 10.045C68.1277 10.261 68.5897 10.576 68.9677 10.99C69.3517 11.398 69.6457 11.893 69.8497 12.475C70.0537 13.051 70.1557 13.699 70.1557 14.419C70.1557 15.139 70.0537 15.79 69.8497 16.372C69.6457 16.954 69.3517 17.449 68.9677 17.857C68.5897 18.265 68.1277 18.58 67.5817 18.802C67.0417 19.018 66.4357 19.126 65.7637 19.126C65.0857 19.126 64.4737 19.018 63.9277 18.802C63.3877 18.58 62.9257 18.265 62.5417 17.857C62.1577 17.449 61.8607 16.954 61.6507 16.372C61.4467 15.79 61.3447 15.139 61.3447 14.419C61.3447 13.699 61.4467 13.051 61.6507 12.475C61.8607 11.893 62.1577 11.398 62.5417 10.99C62.9257 10.576 63.3877 10.261 63.9277 10.045C64.4737 9.823 65.0857 9.712 65.7637 9.712ZM65.7637 17.758C66.6277 17.758 67.2727 17.467 67.6987 16.885C68.1247 16.303 68.3377 15.484 68.3377 14.428C68.3377 13.372 68.1247 12.553 67.6987 11.971C67.2727 11.383 66.6277 11.089 65.7637 11.089C64.8877 11.089 64.2337 11.383 63.8017 11.971C63.3757 12.553 63.1627 13.372 63.1627 14.428C63.1627 15.484 63.3757 16.303 63.8017 16.885C64.2337 17.467 64.8877 17.758 65.7637 17.758ZM74.4907 11.611C74.7847 11.011 75.1387 10.54 75.5527 10.198C75.9667 9.856 76.4647 9.685 77.0467 9.685C77.2447 9.685 77.4307 9.709 77.6047 9.757C77.7847 9.799 77.9407 9.865 78.0727 9.955L77.9557 11.278C77.9137 11.44 77.8147 11.521 77.6587 11.521C77.5747 11.521 77.4487 11.506 77.2807 11.476C77.1127 11.44 76.9327 11.422 76.7407 11.422C76.4587 11.422 76.2097 11.464 75.9937 11.548C75.7777 11.626 75.5827 11.746 75.4087 11.908C75.2407 12.064 75.0907 12.259 74.9587 12.493C74.8267 12.721 74.7037 12.982 74.5897 13.276V19H72.8347V9.856H73.8427C74.0347 9.856 74.1637 9.892 74.2297 9.964C74.3017 10.03 74.3527 10.15 74.3827 10.324L74.4907 11.611Z" fill="#20354E"/>
<g clip-path="url(#clip0)">
<path d="M109.858 9.70941L93.4806 0.347744C93.0826 0.120217 92.6298 0 92.1714 0C91.7069 0 91.2491 0.123204 90.8474 0.356277C90.0367 0.826585 89.5331 1.70096 89.5331 2.63827V21.3617C89.5331 22.2989 90.0367 23.1733 90.8471 23.6436C91.2489 23.8769 91.7068 24.0001 92.1712 24.0001C92.6295 24.0001 93.0823 23.8798 93.4805 23.6522L109.858 14.2905C110.678 13.8218 111.187 12.9442 111.187 11.9999C111.187 11.0557 110.678 10.1781 109.858 9.70941ZM102.761 7.4958L100.513 10.6281L95.1338 3.13578L102.761 7.4958ZM92.0681 22.3909C91.9218 22.3767 91.7784 22.334 91.6503 22.2597C91.3313 22.0746 91.1331 21.7305 91.1331 21.3617V2.63816C91.1331 2.2694 91.3313 1.92528 91.6504 1.74021C91.7781 1.66608 91.9204 1.62192 92.0666 1.60688L99.5277 11.9999L92.0681 22.3909ZM95.1338 20.8642L100.513 13.3718L102.761 16.5041L95.1338 20.8642ZM109.064 12.9012L104.158 15.7058L101.497 11.9999L104.158 8.29412L109.064 11.0987C109.387 11.2831 109.587 11.6284 109.587 11.9999C109.587 12.3715 109.387 12.7169 109.064 12.9012Z" fill="#20354E"/>
</g>
<g clip-path="url(#clip1)">
<path d="M157.167 93C154.375 93 152.113 90.7612 152.113 88V62.375C152.113 59.9625 150.129 58 147.691 58H121.79C118.999 58 116.737 55.7613 116.737 53C116.737 50.2387 118.999 48 121.79 48H147.691C155.702 48 162.22 54.4488 162.22 62.375V88C162.22 90.7612 159.958 93 157.167 93Z" fill="#20354E"/>
<path d="M5.55376 93C2.76251 93 0.5 90.7612 0.5 88V62.375C0.5 54.4488 7.01809 48 15.0296 48H40.9301C43.7214 48 45.9839 50.2387 45.9839 53C45.9839 55.7613 43.7214 58 40.9301 58H15.0296C12.5911 58 10.6075 59.9625 10.6075 62.375V88C10.6075 90.7612 8.34502 93 5.55376 93Z" fill="#20354E"/>
<path d="M40.9301 208H15.0296C7.01809 208 0.5 201.551 0.5 193.625V168C0.5 165.239 2.76251 163 5.55376 163C8.34502 163 10.6075 165.239 10.6075 168V193.625C10.6075 196.037 12.5911 198 15.0296 198H40.9301C43.7214 198 45.9839 200.239 45.9839 203C45.9839 205.761 43.7214 208 40.9301 208Z" fill="#20354E"/>
<path d="M147.691 208H121.79C118.999 208 116.737 205.761 116.737 203C116.737 200.239 118.999 198 121.79 198H147.691C150.129 198 152.113 196.037 152.113 193.625V168C152.113 165.239 154.375 163 157.167 163C159.958 163 162.22 165.239 162.22 168V193.625C162.22 201.551 155.702 208 147.691 208Z" fill="#20354E"/>
<path d="M61.7768 123H35.2445C27.2331 123 20.715 116.551 20.715 108.625V82.375C20.715 74.4488 27.2331 68 35.2445 68H61.7768C69.7883 68 76.3064 74.4488 76.3064 82.375V108.625C76.3064 116.551 69.7883 123 61.7768 123ZM35.2445 78C32.8061 78 30.8225 79.9625 30.8225 82.375V108.625C30.8225 111.037 32.8061 113 35.2445 113H61.7768C64.2152 113 66.1988 111.037 66.1988 108.625V82.375C66.1988 79.9625 64.2152 78 61.7768 78H35.2445Z" fill="#20354E"/>
<path d="M61.7768 188H35.2445C27.2331 188 20.715 181.551 20.715 173.625V147.375C20.715 139.449 27.2331 133 35.2445 133H61.7768C69.7883 133 76.3064 139.449 76.3064 147.375V173.625C76.3064 181.551 69.7883 188 61.7768 188ZM35.2445 143C32.8061 143 30.8225 144.962 30.8225 147.375V173.625C30.8225 176.037 32.8061 178 35.2445 178H61.7768C64.2152 178 66.1988 176.037 66.1988 173.625V147.375C66.1988 144.962 64.2152 143 61.7768 143H35.2445Z" fill="#20354E"/>
<path d="M127.476 123H100.944C92.9322 123 86.4141 116.551 86.4141 108.625V82.375C86.4141 74.4488 92.9322 68 100.944 68H127.476C135.487 68 142.005 74.4488 142.005 82.375V108.625C142.005 116.551 135.487 123 127.476 123ZM100.944 78C98.5052 78 96.5216 79.9625 96.5216 82.375V108.625C96.5216 111.037 98.5052 113 100.944 113H127.476C129.914 113 131.898 111.037 131.898 108.625V82.375C131.898 79.9625 129.914 78 127.476 78H100.944Z" fill="#20354E"/>
<path d="M133.793 158H121.79V141.125C121.79 136.645 118.107 133 113.578 133H94.6264C90.0979 133 86.4141 136.645 86.4141 141.125V159.875C86.4141 164.355 90.0979 168 94.6264 168H111.683V179.875C111.683 184.355 115.367 188 119.895 188H133.793C138.322 188 142.005 184.355 142.005 179.875V166.125C142.005 161.645 138.322 158 133.793 158ZM96.5216 143H111.683V158H96.5216V143ZM131.898 178H121.79V168H131.898V178Z" fill="#20354E"/>
<path d="M51.0376 103H45.9838C43.1926 103 40.9301 100.761 40.9301 98V93C40.9301 90.2387 43.1926 88 45.9838 88H51.0376C53.8289 88 56.0914 90.2387 56.0914 93V98C56.0914 100.761 53.8289 103 51.0376 103Z" fill="#20354E"/>
<path d="M116.737 103H111.683C108.892 103 106.629 100.761 106.629 98V93C106.629 90.2387 108.892 88 111.683 88H116.737C119.528 88 121.79 90.2387 121.79 93V98C121.79 100.761 119.528 103 116.737 103Z" fill="#20354E"/>
<path d="M51.0376 168H45.9838C43.1926 168 40.9301 165.761 40.9301 163V158C40.9301 155.239 43.1926 153 45.9838 153H51.0376C53.8289 153 56.0914 155.239 56.0914 158V163C56.0914 165.761 53.8289 168 51.0376 168Z" fill="#20354E"/>
</g>
<defs>
<clipPath id="clip0">
<rect width="24" height="24" fill="white" transform="translate(88.3602)"/>
</clipPath>
<clipPath id="clip1">
<rect width="161.72" height="160" fill="white" transform="translate(0.5 48)"/>
</clipPath>
</defs>
</svg>
