<svg width="90" height="91" viewBox="0 0 90 91" fill="none" xmlns="http://www.w3.org/2000/svg">
<rect y="0.5" width="90" height="90" rx="24" fill="#CE0000" fill-opacity="0.1"/>
<path d="M60.4545 47.6091V40.9545C60.4545 32.4273 53.5273 25.5 45 25.5C36.4727 25.5 29.5455 32.4273 29.5455 40.9545V47.6091C26.9273 48.3909 25 50.8091 25 53.6818V59.1364C25 62.6455 27.8545 65.5 31.3636 65.5H35.9091C36.9091 65.5 37.7273 64.6818 37.7273 63.6818V49.1364C37.7273 48.1364 36.9091 47.3182 35.9091 47.3182H33.1818V40.9545C33.1818 34.4455 38.4909 29.1364 45 29.1364C51.5091 29.1364 56.8182 34.4455 56.8182 40.9545V47.3182H54.0909C53.0909 47.3182 52.2727 48.1364 52.2727 49.1364V63.6818C52.2727 64.6818 53.0909 65.5 54.0909 65.5H58.6364C62.1455 65.5 65 62.6455 65 59.1364V53.6818C65 50.8091 63.0727 48.3909 60.4545 47.6091ZM34.0909 61.8636H31.3636C29.8545 61.8636 28.6364 60.6455 28.6364 59.1364V53.6818C28.6364 52.1727 29.8545 50.9545 31.3636 50.9545H34.0909V61.8636ZM61.3636 59.1364C61.3636 60.6455 60.1455 61.8636 58.6364 61.8636H55.9091V50.9545H58.6364C60.1455 50.9545 61.3636 52.1727 61.3636 53.6818V59.1364Z" fill="white"/>
<path d="M47.5454 34.9545C46.5454 34.9545 45.7273 35.7727 45.7273 36.7727V44.5727C45.4909 44.5363 45.2545 44.5 45 44.5C42.6 44.5 40.6364 46.4636 40.6364 48.8636C40.6364 51.2636 42.6 53.2273 45 53.2273C47.4 53.2273 49.3636 51.2636 49.3636 48.8636V36.7727C49.3636 35.7727 48.5454 34.9545 47.5454 34.9545ZM45 49.5909C44.6 49.5909 44.2727 49.2636 44.2727 48.8636C44.2727 48.4636 44.6 48.1363 45 48.1363C45.4 48.1363 45.7273 48.4636 45.7273 48.8636C45.7273 49.2636 45.4 49.5909 45 49.5909Z" fill="white"/>
</svg>
