<svg width="90" height="91" viewBox="0 0 90 91" fill="none" xmlns="http://www.w3.org/2000/svg">
<rect y="0.5" width="90" height="90" rx="24" fill="#CE0000" fill-opacity="0.1"/>
<path d="M56.8667 41.7666C52.3834 41.7666 48.7334 38.1166 48.7334 33.6333C48.7334 29.15 52.3834 25.5 56.8667 25.5C61.35 25.5 65 29.15 65 33.6333C65 38.1166 61.35 41.7666 56.8667 41.7666ZM56.8667 28.5833C54.0834 28.5833 51.8167 30.85 51.8167 33.6333C51.8167 36.4166 54.0834 38.6833 56.8667 38.6833C59.65 38.6833 61.9167 36.4166 61.9167 33.6333C61.9167 30.85 59.65 28.5833 56.8667 28.5833Z" fill="white"/>
<path d="M56.8667 65.5C52.3834 65.5 48.7334 61.85 48.7334 57.3667C48.7334 52.8834 52.3834 49.2334 56.8667 49.2334C61.35 49.2334 65 52.8834 65 57.3667C65 61.85 61.35 65.5 56.8667 65.5ZM56.8667 52.3167C54.0834 52.3167 51.8167 54.5834 51.8167 57.3667C51.8167 60.15 54.0834 62.4167 56.8667 62.4167C59.65 62.4167 61.9167 60.15 61.9167 57.3667C61.9167 54.5834 59.65 52.3167 56.8667 52.3167Z" fill="white"/>
<path d="M33.1333 52.3166C28.65 52.3166 25 48.6666 25 44.1833C25 39.7 28.65 36.05 33.1333 36.05C37.6166 36.05 41.2666 39.7 41.2666 44.1833C41.2666 48.6666 37.6166 52.3166 33.1333 52.3166ZM33.1333 39.1333C30.35 39.1333 28.0833 41.4 28.0833 44.1833C28.0833 46.9666 30.35 49.2333 33.1333 49.2333C35.9166 49.2333 38.1833 46.9666 38.1833 44.1833C38.1833 41.4 35.9166 39.1333 33.1333 39.1333Z" fill="white"/>
<path d="M39.15 43.0499C38.5667 43.0499 38 42.7166 37.75 42.1332C37.4 41.3499 37.75 40.4499 38.5333 40.0999L50.2166 34.8999C51 34.5499 51.9 34.8999 52.25 35.6832C52.6 36.4666 52.25 37.3666 51.4666 37.7166L39.7833 42.9166C39.5833 42.9999 39.3667 43.0499 39.15 43.0499Z" fill="white"/>
<path d="M51.1002 55.7C50.8502 55.7 50.5835 55.6333 50.3502 55.5L38.1335 48.7166C37.3835 48.3 37.1169 47.3666 37.5335 46.6333C37.9502 45.8833 38.8835 45.6166 39.6335 46.0333L51.8502 52.8166C52.6002 53.2333 52.8669 54.1666 52.4502 54.9C52.1669 55.4166 51.6502 55.7 51.1002 55.7Z" fill="white"/>
</svg>
