<svg width="90" height="91" viewBox="0 0 90 91" fill="none" xmlns="http://www.w3.org/2000/svg">
<rect y="0.5" width="90" height="90" rx="24" fill="#CE0000" fill-opacity="0.1"/>
<g clip-path="url(#clip0)">
<path d="M44.9347 25.5C48.7984 25.5 51.942 28.6435 51.942 32.5073V46.2791C51.942 50.1423 48.7984 53.2859 44.9347 53.2859C41.0709 53.2859 37.9274 50.1642 37.9274 46.3272V32.5073C37.9274 28.6435 41.0709 25.5 44.9347 25.5ZM40.8476 46.3268C40.8476 48.5536 42.6812 50.3657 44.9347 50.3657C47.1882 50.3657 49.0223 48.5326 49.0223 46.2786V32.5073C49.0223 30.2533 47.1887 28.4197 44.9347 28.4197C42.6807 28.4197 40.8471 30.2533 40.8476 32.5073V46.3268Z" fill="white"/>
<path d="M43.475 57.4706H46.3947V64.04H43.475V57.4706Z" fill="white"/>
<path d="M41.0903 62.5804H48.7789C49.5853 62.5804 50.2388 63.234 50.2388 64.0403C50.2388 64.8466 49.5853 65.5001 48.7789 65.5001H41.0903C40.284 65.5001 39.6305 64.8466 39.6305 64.0403C39.6305 63.234 40.284 62.5804 41.0903 62.5804Z" fill="white"/>
<path d="M33.8884 43.8453C34.6948 43.8453 35.3483 44.4988 35.3483 45.3052V46.4731C35.3483 51.7587 39.649 56.0594 44.9347 56.0594C50.2208 56.0594 54.5211 51.7587 54.5211 46.4731V45.3052C54.5211 44.4988 55.1746 43.8453 55.981 43.8453C56.7873 43.8453 57.4408 44.4988 57.4408 45.3052V46.4731C57.4408 53.3689 51.8306 58.9791 44.9347 58.9791C38.0388 58.9791 32.4286 53.3689 32.4286 46.4731V45.3052C32.4286 44.4989 33.0821 43.8453 33.8884 43.8453Z" fill="white"/>
</g>
<defs>
<clipPath id="clip0">
<rect width="40" height="40" fill="white" transform="matrix(-1 0 0 1 65 25.5)"/>
</clipPath>
</defs>
</svg>
